<svg width="243" height="100" viewBox="0 0 243 100" fill="none" xmlns="http://www.w3.org/2000/svg">
<path d="M9.20805 49.8998L0.0268925 0.745645C-0.00222834 0.654038 -0.00780374 0.556573 0.0106782 0.462242C0.02916 0.367911 0.0711037 0.27976 0.132641 0.205915C0.194178 0.132071 0.273326 0.0749153 0.362777 0.0397259C0.452229 0.0045365 0.549102 -0.00755356 0.644459 0.00457063H15.2931C15.4732 -0.00933894 15.6516 0.0473226 15.7907 0.162568C15.9298 0.277814 16.0186 0.442612 16.0383 0.622137L20.8759 33.7607H23.3462L28.1879 0.622137C28.2067 0.442188 28.2952 0.276758 28.4345 0.161312C28.5738 0.0458656 28.7528 -0.0104051 28.9331 0.00457063H43.5777C43.6731 -0.00721035 43.7699 0.0050666 43.8594 0.0402787C43.9489 0.0754908 44.0281 0.132522 44.0899 0.206179C44.1517 0.279837 44.1941 0.36778 44.2132 0.462003C44.2323 0.556227 44.2276 0.653729 44.1994 0.745645L36.1298 49.8998L44.1994 98.6752C44.2284 98.7674 44.2338 98.8654 44.2151 98.9602C44.1964 99.055 44.1541 99.1436 44.0922 99.2178C44.0303 99.292 43.9508 99.3494 43.8608 99.3848C43.7709 99.4202 43.6736 99.4325 43.5777 99.4204H28.9455C28.7645 99.4353 28.585 99.3785 28.4455 99.2622C28.3061 99.1459 28.218 98.9794 28.2003 98.7987L23.3586 65.6601H20.8883L16.0507 98.7987C16.0319 98.979 15.9435 99.1448 15.8044 99.2609C15.6652 99.377 15.4862 99.4342 15.3055 99.4204H0.665046C0.569486 99.4317 0.472617 99.4189 0.383276 99.3832C0.293935 99.3474 0.214964 99.2899 0.153564 99.2158C0.0921636 99.1417 0.0502881 99.0534 0.0317581 98.959C0.0132282 98.8646 0.0186335 98.767 0.0474793 98.6752L9.20805 49.8998Z" fill="#49D0FF"/>
<path d="M48.2432 0.621736C48.2384 0.539384 48.2511 0.456954 48.2804 0.379858C48.3098 0.302763 48.3551 0.232747 48.4134 0.174417C48.4718 0.116088 48.5418 0.0707656 48.6189 0.0414231C48.696 0.0120805 48.7784 -0.000616764 48.8607 0.00416956H63.7564C63.839 -0.000560757 63.9216 0.012142 63.9989 0.0414482C64.0761 0.0707544 64.1464 0.11601 64.2051 0.174267C64.2637 0.232523 64.3094 0.302473 64.3392 0.379569C64.3691 0.456666 64.3823 0.539179 64.3781 0.621736L68.2235 55.8569H70.6938L73.9463 0.621736C73.9463 0.127683 74.1933 0.00416956 74.568 0.00416956H85.7377C86.1082 0.00416956 86.3594 0.127683 86.3594 0.621736L89.5913 55.8569H92.0616L95.9111 0.621736C95.9062 0.539017 95.919 0.456214 95.9486 0.378815C95.9782 0.301416 96.0239 0.231193 96.0827 0.172797C96.1415 0.1144 96.212 0.0691623 96.2896 0.0400912C96.3672 0.0110202 96.4501 -0.00122389 96.5327 0.00416956H111.412C111.495 -0.00122389 111.578 0.0110202 111.655 0.0400912C111.733 0.0691623 111.803 0.1144 111.862 0.172797C111.921 0.231193 111.967 0.301416 111.996 0.378815C112.026 0.456214 112.039 0.539017 112.034 0.621736L105.212 98.6748C105.217 98.7579 105.205 98.8411 105.175 98.919C105.146 98.9969 105.1 99.0677 105.042 99.1265C104.983 99.1854 104.912 99.231 104.834 99.2603C104.756 99.2896 104.673 99.3019 104.59 99.2965H84.3585C83.9879 99.2965 83.7409 99.173 83.7409 98.6748L81.3818 59.5623H78.9115L76.5524 98.6748C76.5524 99.173 76.3054 99.2965 75.9307 99.2965H55.6869C55.6042 99.3013 55.5214 99.2885 55.444 99.2589C55.3666 99.2294 55.2964 99.1837 55.238 99.1249C55.1796 99.0661 55.1343 98.9956 55.1053 98.918C55.0762 98.8404 55.0639 98.7575 55.0693 98.6748L48.2432 0.621736Z" fill="#121214"/>
<path d="M132.837 57.0959V84.4005H148.351C148.434 84.3958 148.516 84.4086 148.594 84.4381C148.672 84.4677 148.742 84.5133 148.801 84.572C148.86 84.6307 148.905 84.7012 148.935 84.7788C148.964 84.8564 148.977 84.9393 148.972 85.0222V98.6746C148.978 98.7576 148.965 98.8409 148.936 98.9188C148.907 98.9967 148.861 99.0674 148.802 99.1263C148.743 99.1851 148.673 99.2307 148.595 99.2601C148.517 99.2894 148.434 99.3017 148.351 99.2962H117.32C117.237 99.3011 117.154 99.2883 117.077 99.2587C117 99.2291 116.929 99.1834 116.871 99.1246C116.813 99.0658 116.767 98.9953 116.738 98.9177C116.709 98.8401 116.697 98.7572 116.702 98.6746V0.621481C116.698 0.539129 116.71 0.456699 116.74 0.379603C116.769 0.302508 116.814 0.232492 116.873 0.174162C116.931 0.115833 117.001 0.0705106 117.078 0.0411681C117.155 0.0118256 117.238 -0.000871749 117.32 0.00391458H147.111C147.194 -0.000871749 147.276 0.0118256 147.353 0.0411681C147.43 0.0705106 147.5 0.115833 147.559 0.174162C147.617 0.232492 147.662 0.302508 147.692 0.379603C147.721 0.456699 147.734 0.539129 147.729 0.621481V14.2779C147.734 14.3603 147.721 14.4427 147.692 14.5198C147.662 14.5969 147.617 14.6669 147.559 14.7252C147.5 14.7836 147.43 14.8289 147.353 14.8583C147.276 14.8876 147.194 14.9003 147.111 14.8955H132.837V42.2002H144.629C144.711 42.196 144.794 42.2092 144.871 42.2391C144.948 42.2689 145.018 42.3146 145.076 42.3732C145.134 42.4319 145.18 42.5021 145.209 42.5794C145.238 42.6567 145.251 42.7393 145.246 42.8219V56.4742C145.252 56.5569 145.239 56.6398 145.21 56.7174C145.181 56.7949 145.136 56.8655 145.078 56.9243C145.019 56.983 144.949 57.0288 144.872 57.0583C144.794 57.0879 144.711 57.1007 144.629 57.0959H132.837Z" fill="#121214"/>
<path d="M197.011 98.6745C197.011 99.1727 196.764 99.2962 196.393 99.2962H181.498C181.127 99.2962 180.876 99.1727 180.876 98.6745L179.641 73.8525H170.95L169.714 98.6745C169.714 99.1727 169.467 99.2962 169.093 99.2962H154.193C153.818 99.2962 153.571 99.1727 153.571 98.6745L159.035 0.621473C159.035 0.12742 159.282 0.00390625 159.652 0.00390625H190.942C191.317 0.00390625 191.564 0.12742 191.564 0.621473L197.011 98.6745ZM171.818 58.9568H178.768L176.532 14.9037H174.062L171.818 58.9568Z" fill="#121214"/>
<path d="M242.512 99.2965H227.369C227.215 99.2759 227.069 99.2203 226.94 99.1339C226.812 99.0475 226.705 98.9327 226.628 98.7983C225.014 96.3281 225.014 91.9722 225.014 89.6172L225.261 54.6217H217.813V98.6748C217.818 98.7579 217.806 98.8411 217.777 98.919C217.747 98.9969 217.702 99.0677 217.643 99.1265C217.584 99.1854 217.513 99.231 217.436 99.2603C217.358 99.2896 217.274 99.3019 217.191 99.2965H202.3C202.217 99.3019 202.133 99.2896 202.055 99.2603C201.978 99.231 201.907 99.1854 201.848 99.1265C201.789 99.0677 201.744 98.9969 201.714 98.919C201.685 98.8411 201.673 98.7579 201.678 98.6748V0.621736C201.673 0.539017 201.686 0.456214 201.716 0.378815C201.745 0.301416 201.791 0.231193 201.85 0.172797C201.908 0.1144 201.979 0.0691623 202.057 0.0400912C202.134 0.0110202 202.217 -0.00122389 202.3 0.00416956H228.983C238.913 0.00416956 241.396 7.44791 241.396 19.861V36.9882C241.396 43.6908 237.546 45.6794 235.562 45.9264V48.3967C237.423 48.6437 241.396 50.6281 241.396 57.3308V89.6048C241.396 91.7128 241.396 96.0563 242.886 98.5389C242.946 98.607 242.984 98.6912 242.996 98.781C243.008 98.8707 242.993 98.962 242.952 99.0432C242.912 99.1243 242.849 99.1917 242.77 99.2368C242.692 99.2819 242.602 99.3027 242.512 99.2965ZM225.261 39.7219V14.8958H217.813V39.7219H225.261Z" fill="#121214"/>
</svg>
