<svg width="99" height="41" viewBox="0 0 99 41" fill="none" xmlns="http://www.w3.org/2000/svg">
<g opacity="0.3">
<path d="M3.75143 20.3296L0.0109562 0.303781C-0.000907843 0.26646 -0.0031793 0.226752 0.00435036 0.188321C0.01188 0.14989 0.0289682 0.113976 0.0540389 0.0838915C0.0791097 0.0538066 0.111355 0.030521 0.147798 0.0161846C0.184241 0.0018482 0.223708 -0.00307738 0.262557 0.00186211H6.23054C6.3039 -0.00380475 6.37659 0.0192796 6.43325 0.0662315C6.4899 0.113183 6.52608 0.180323 6.53413 0.253463L8.50501 13.7544H9.51141L11.484 0.253463C11.4916 0.180151 11.5277 0.112753 11.5844 0.0657196C11.6412 0.018686 11.7141 -0.00423913 11.7876 0.00186211H17.7539C17.7927 -0.00293755 17.8322 0.00206417 17.8686 0.0164098C17.9051 0.0307555 17.9374 0.0539903 17.9625 0.083999C17.9877 0.114008 18.005 0.149836 18.0128 0.188224C18.0206 0.226611 18.0186 0.266334 18.0071 0.303781L14.7196 20.3296L18.0071 40.201C18.019 40.2386 18.0212 40.2785 18.0136 40.3171C18.0059 40.3557 17.9887 40.3918 17.9635 40.422C17.9383 40.4523 17.9059 40.4757 17.8692 40.4901C17.8326 40.5045 17.7929 40.5095 17.7539 40.5046H11.7926C11.7189 40.5107 11.6457 40.4875 11.5889 40.4401C11.5321 40.3928 11.4962 40.325 11.489 40.2513L9.51645 26.7504H8.51004L6.53917 40.2513C6.53152 40.3248 6.49551 40.3923 6.43881 40.4396C6.38211 40.4869 6.30919 40.5102 6.23557 40.5046H0.270945C0.232013 40.5092 0.192548 40.504 0.15615 40.4894C0.119751 40.4749 0.087578 40.4514 0.0625631 40.4212C0.0375482 40.3911 0.0204877 40.3551 0.0129385 40.3166C0.00538925 40.2782 0.00759143 40.2384 0.0193434 40.201L3.75143 20.3296Z" fill="white"/>
<path d="M19.6547 0.253083C19.6527 0.219532 19.6579 0.185949 19.6699 0.15454C19.6818 0.123131 19.7003 0.0946059 19.7241 0.070842C19.7478 0.047078 19.7763 0.0286134 19.8078 0.0166591C19.8392 0.00470469 19.8727 -0.000468288 19.9063 0.0014817H25.9749C26.0085 -0.000445471 26.0422 0.00472972 26.0737 0.0166693C26.1052 0.0286089 26.1338 0.0470463 26.1577 0.0707805C26.1816 0.0945147 26.2002 0.123013 26.2124 0.154422C26.2245 0.185832 26.2299 0.219449 26.2282 0.253083L27.7948 22.7563H28.8012L30.1263 0.253083C30.1263 0.0518019 30.227 0.0014817 30.3796 0.0014817H34.9302C35.0812 0.0014817 35.1835 0.0518019 35.1835 0.253083L36.5002 22.7563H37.5066L39.075 0.253083C39.073 0.219382 39.0782 0.185648 39.0902 0.154115C39.1023 0.122582 39.1209 0.0939728 39.1449 0.0701816C39.1688 0.0463904 39.1975 0.0279602 39.2292 0.0161165C39.2608 0.00427269 39.2945 -0.000715635 39.3282 0.0014817H45.3901C45.4238 -0.000715635 45.4576 0.00427269 45.4892 0.0161165C45.5208 0.0279602 45.5496 0.0463904 45.5735 0.0701816C45.5975 0.0939728 45.6161 0.122582 45.6281 0.154115C45.6402 0.185648 45.6454 0.219382 45.6434 0.253083L42.8641 40.2006C42.8663 40.2345 42.8613 40.2684 42.8493 40.3001C42.8374 40.3319 42.8188 40.3607 42.7948 40.3847C42.7708 40.4086 42.742 40.4272 42.7103 40.4392C42.6785 40.4511 42.6446 40.4561 42.6108 40.4539H34.3683C34.2174 40.4539 34.1167 40.4036 34.1167 40.2006L33.1556 24.2659H32.1492L31.1881 40.2006C31.1881 40.4036 31.0875 40.4539 30.9348 40.4539H22.6873C22.6536 40.4559 22.6199 40.4507 22.5884 40.4386C22.5568 40.4266 22.5282 40.4079 22.5044 40.384C22.4806 40.36 22.4622 40.3313 22.4504 40.2997C22.4385 40.2681 22.4335 40.2343 22.4357 40.2006L19.6547 0.253083Z" fill="white"/>
<path d="M54.1189 23.2611V34.3852H60.4391C60.4729 34.3832 60.5067 34.3885 60.5383 34.4005C60.5699 34.4125 60.5987 34.4311 60.6226 34.455C60.6465 34.479 60.6651 34.5077 60.6771 34.5393C60.6892 34.5709 60.6944 34.6047 60.6924 34.6385V40.2005C60.6946 40.2344 60.6896 40.2683 60.6777 40.3C60.6657 40.3318 60.6472 40.3606 60.6232 40.3846C60.5992 40.4085 60.5704 40.4271 60.5386 40.4391C60.5069 40.451 60.473 40.456 60.4391 40.4538H47.797C47.7633 40.4558 47.7296 40.4506 47.6981 40.4385C47.6665 40.4265 47.6379 40.4078 47.6141 40.3839C47.5903 40.3599 47.5719 40.3312 47.5601 40.2996C47.5482 40.268 47.5432 40.2342 47.5454 40.2005V0.252979C47.5435 0.219428 47.5486 0.185845 47.5606 0.154436C47.5726 0.123027 47.591 0.094502 47.6148 0.0707381C47.6386 0.0469742 47.6671 0.0285095 47.6985 0.0165552C47.7299 0.00460081 47.7635 -0.000572171 47.797 0.00137781H59.9343C59.9678 -0.000572171 60.0014 0.00460081 60.0328 0.0165552C60.0642 0.0285095 60.0927 0.0469742 60.1165 0.0707381C60.1403 0.094502 60.1587 0.123027 60.1707 0.154436C60.1826 0.185845 60.1878 0.219428 60.1859 0.252979V5.81672C60.1878 5.85027 60.1826 5.88385 60.1707 5.91526C60.1587 5.94667 60.1403 5.97519 60.1165 5.99896C60.0927 6.02272 60.0642 6.04119 60.0328 6.05314C60.0014 6.0651 59.9678 6.07027 59.9343 6.06832H54.1189V17.1924H58.9228C58.9565 17.1907 58.9901 17.1961 59.0215 17.2083C59.0529 17.2204 59.0814 17.2391 59.1051 17.263C59.1289 17.2868 59.1473 17.3155 59.1592 17.347C59.1712 17.3785 59.1764 17.4121 59.1744 17.4457V23.0078C59.1766 23.0415 59.1716 23.0752 59.1598 23.1069C59.148 23.1385 59.1295 23.1672 59.1057 23.1912C59.0819 23.2151 59.0533 23.2337 59.0218 23.2458C58.9903 23.2578 58.9565 23.263 58.9228 23.2611H54.1189Z" fill="white"/>
<path d="M80.2631 40.2011C80.2631 40.4041 80.1624 40.4544 80.0115 40.4544H73.9428C73.7919 40.4544 73.6896 40.4041 73.6896 40.2011L73.1864 30.0884H69.6455L69.1423 40.2011C69.1423 40.4041 69.0416 40.4544 68.889 40.4544H62.8187C62.6661 40.4544 62.5654 40.4041 62.5654 40.2011L64.7913 0.253554C64.7913 0.0522733 64.8919 0.00195312 65.0429 0.00195312H77.7906C77.9433 0.00195312 78.0439 0.0522733 78.0439 0.253554L80.2631 40.2011ZM69.9994 24.0198H72.8308L71.92 6.07225H70.9135L69.9994 24.0198Z" fill="white"/>
<path d="M98.8014 40.4539H92.6322C92.5696 40.4455 92.5099 40.4229 92.4575 40.3877C92.4052 40.3525 92.3616 40.3057 92.3302 40.251C91.6727 39.2446 91.6727 37.4699 91.6727 36.5105L91.7734 22.2531H88.739V40.2006C88.7413 40.2345 88.7362 40.2684 88.7243 40.3001C88.7124 40.3319 88.6938 40.3607 88.6698 40.3847C88.6458 40.4086 88.617 40.4272 88.5853 40.4392C88.5535 40.4511 88.5196 40.4561 88.4858 40.4539H82.4188C82.385 40.4561 82.3511 40.4511 82.3193 40.4392C82.2876 40.4272 82.2588 40.4086 82.2348 40.3847C82.2108 40.3607 82.1922 40.3319 82.1803 40.3001C82.1684 40.2684 82.1633 40.2345 82.1656 40.2006V0.253083C82.1636 0.219382 82.1688 0.185648 82.1808 0.154115C82.1929 0.122582 82.2115 0.0939728 82.2355 0.0701816C82.2594 0.0463904 82.2881 0.0279602 82.3198 0.0161165C82.3514 0.00427269 82.3851 -0.000715635 82.4188 0.0014817H93.2897C97.3354 0.0014817 98.3469 3.03412 98.3469 8.0913V15.069C98.3469 17.7997 96.7785 18.6099 95.9701 18.7105V19.7169C96.7282 19.8176 98.3469 20.6261 98.3469 23.3568V36.5055C98.3469 37.3643 98.3469 39.1338 98.9541 40.1453C98.9784 40.173 98.994 40.2073 98.9988 40.2439C99.0036 40.2805 98.9974 40.3176 98.9811 40.3507C98.9647 40.3838 98.9389 40.4112 98.9069 40.4296C98.8749 40.448 98.8382 40.4564 98.8014 40.4539ZM91.7734 16.1828V6.06843H88.739V16.1828H91.7734Z" fill="white"/>
</g>
</svg>
