<svg width="1920" height="895" viewBox="0 0 1920 895" fill="none" xmlns="http://www.w3.org/2000/svg">
<mask id="mask0_67_258" style="mask-type:alpha" maskUnits="userSpaceOnUse" x="0" y="0" width="1920" height="895">
<rect width="1920" height="895" fill="#D9D9D9"/>
<rect width="1920" height="895" fill="url(#paint0_linear_67_258)"/>
<rect width="1920" height="895" fill="url(#paint1_radial_67_258)" fill-opacity="0.19"/>
</mask>
<g mask="url(#mask0_67_258)">
<g opacity="0.02">
<path d="M202.509 531.623L135.053 170.478C134.839 169.805 134.798 169.089 134.934 168.396C135.07 167.703 135.378 167.055 135.83 166.513C136.282 165.97 136.864 165.55 137.521 165.292C138.178 165.033 138.89 164.945 139.59 165.034H247.217C248.54 164.931 249.851 165.348 250.872 166.194C251.894 167.041 252.547 168.252 252.692 169.571L288.235 413.046H306.384L341.957 169.571C342.095 168.249 342.745 167.033 343.769 166.185C344.792 165.337 346.107 164.924 347.432 165.034H455.028C455.729 164.947 456.441 165.037 457.098 165.296C457.755 165.555 458.338 165.974 458.792 166.515C459.246 167.056 459.557 167.702 459.697 168.394C459.838 169.087 459.803 169.803 459.596 170.478L400.308 531.623L459.596 889.984C459.809 890.661 459.849 891.381 459.712 892.078C459.574 892.774 459.264 893.425 458.809 893.97C458.354 894.515 457.769 894.938 457.109 895.198C456.448 895.458 455.733 895.548 455.028 895.459H347.523C346.193 895.569 344.874 895.151 343.85 894.297C342.825 893.442 342.178 892.219 342.048 890.891L306.475 647.416H288.325L252.783 890.891C252.645 892.216 251.995 893.434 250.973 894.287C249.95 895.14 248.635 895.561 247.308 895.459H139.742C139.04 895.542 138.328 895.448 137.671 895.185C137.015 894.923 136.435 894.5 135.984 893.956C135.533 893.411 135.225 892.763 135.089 892.069C134.953 891.375 134.992 890.658 135.204 889.984L202.509 531.623Z" fill="#303030"/>
<path d="M489.33 169.57C489.294 168.965 489.388 168.359 489.603 167.793C489.819 167.226 490.152 166.712 490.58 166.283C491.009 165.855 491.523 165.522 492.09 165.306C492.656 165.091 493.262 164.997 493.867 165.033H603.308C603.914 164.998 604.521 165.091 605.089 165.306C605.657 165.522 606.173 165.854 606.604 166.282C607.035 166.71 607.371 167.224 607.59 167.791C607.809 168.357 607.906 168.963 607.876 169.57L636.128 575.392H654.278L678.175 169.57C678.175 165.94 679.99 165.033 682.742 165.033H764.808C767.531 165.033 769.376 165.94 769.376 169.57L793.121 575.392H811.271L839.554 169.57C839.518 168.962 839.612 168.354 839.829 167.785C840.047 167.216 840.383 166.701 840.815 166.271C841.246 165.842 841.765 165.51 842.335 165.296C842.905 165.083 843.514 164.993 844.121 165.033H953.442C954.049 164.993 954.658 165.083 955.228 165.296C955.798 165.51 956.316 165.842 956.748 166.271C957.18 166.701 957.516 167.216 957.733 167.785C957.951 168.354 958.045 168.962 958.009 169.57L907.886 889.983C907.927 890.593 907.836 891.205 907.621 891.777C907.405 892.349 907.07 892.869 906.638 893.302C906.205 893.734 905.685 894.069 905.113 894.285C904.541 894.5 903.929 894.591 903.319 894.55H754.675C751.952 894.55 750.137 893.643 750.137 889.983L732.805 602.616H714.655L697.322 889.983C697.322 893.643 695.507 894.55 692.755 894.55H544.02C543.412 894.586 542.804 894.492 542.235 894.275C541.666 894.057 541.15 893.721 540.721 893.29C540.292 892.858 539.96 892.339 539.746 891.769C539.533 891.199 539.443 890.59 539.482 889.983L489.33 169.57Z" fill="#303030"/>
<path d="M1110.89 584.498V785.11H1224.87C1225.48 785.075 1226.09 785.169 1226.66 785.386C1227.23 785.603 1227.75 785.939 1228.18 786.37C1228.61 786.801 1228.94 787.319 1229.16 787.889C1229.38 788.459 1229.47 789.069 1229.44 789.678V889.984C1229.48 890.594 1229.39 891.206 1229.17 891.778C1228.96 892.351 1228.62 892.87 1228.19 893.303C1227.76 893.735 1227.24 894.07 1226.66 894.286C1226.09 894.501 1225.48 894.592 1224.87 894.552H996.881C996.274 894.587 995.665 894.493 995.097 894.276C994.528 894.058 994.012 893.723 993.583 893.291C993.154 892.859 992.822 892.341 992.608 891.771C992.394 891.2 992.304 890.591 992.344 889.984V169.571C992.309 168.966 992.402 168.36 992.618 167.794C992.833 167.227 993.166 166.713 993.595 166.284C994.024 165.856 994.538 165.523 995.104 165.307C995.671 165.092 996.276 164.998 996.881 165.034H1215.76C1216.37 164.998 1216.97 165.092 1217.54 165.307C1218.11 165.523 1218.62 165.856 1219.05 166.284C1219.48 166.713 1219.81 167.227 1220.03 167.794C1220.24 168.36 1220.34 168.966 1220.3 169.571V269.907C1220.34 270.512 1220.24 271.118 1220.03 271.684C1219.81 272.251 1219.48 272.765 1219.05 273.194C1218.62 273.622 1218.11 273.955 1217.54 274.171C1216.97 274.387 1216.37 274.48 1215.76 274.445H1110.89V475.057H1197.52C1198.13 475.026 1198.74 475.123 1199.3 475.342C1199.87 475.562 1200.38 475.898 1200.81 476.328C1201.24 476.759 1201.57 477.275 1201.79 477.843C1202 478.411 1202.1 479.018 1202.06 479.624V579.931C1202.1 580.538 1202.01 581.147 1201.8 581.717C1201.58 582.287 1201.25 582.805 1200.82 583.237C1200.39 583.669 1199.88 584.005 1199.31 584.222C1198.74 584.44 1198.13 584.534 1197.52 584.498H1110.89Z" fill="#303030"/>
<path d="M1582.32 889.983C1582.32 893.643 1580.51 894.551 1577.79 894.551H1468.34C1465.62 894.551 1463.78 893.643 1463.78 889.983L1454.7 707.611H1390.85L1381.77 889.983C1381.77 893.643 1379.96 894.551 1377.2 894.551H1267.73C1264.98 894.551 1263.17 893.643 1263.17 889.983L1303.31 169.57C1303.31 165.94 1305.12 165.033 1307.84 165.033H1537.74C1540.49 165.033 1542.3 165.94 1542.3 169.57L1582.32 889.983ZM1397.23 598.17H1448.29L1431.86 274.504H1413.71L1397.23 598.17Z" fill="#303030"/>
<path d="M1916.63 894.55H1805.38C1804.25 894.399 1803.17 893.99 1802.23 893.356C1801.28 892.721 1800.5 891.878 1799.93 890.89C1788.07 872.741 1788.07 840.737 1788.07 823.435L1789.89 566.317H1735.17V889.983C1735.21 890.593 1735.12 891.205 1734.9 891.777C1734.69 892.349 1734.35 892.869 1733.92 893.302C1733.49 893.734 1732.97 894.069 1732.4 894.285C1731.82 894.5 1731.21 894.591 1730.6 894.55H1621.19C1620.58 894.591 1619.97 894.5 1619.4 894.285C1618.82 894.069 1618.3 893.734 1617.87 893.302C1617.44 892.869 1617.1 892.349 1616.89 891.777C1616.67 891.205 1616.58 890.593 1616.62 889.983V169.57C1616.59 168.962 1616.68 168.354 1616.9 167.785C1617.12 167.216 1617.45 166.701 1617.88 166.271C1618.32 165.842 1618.83 165.51 1619.4 165.296C1619.97 165.083 1620.58 164.993 1621.19 165.033H1817.23C1890.2 165.033 1908.44 219.723 1908.44 310.924V436.76C1908.44 486.006 1880.15 500.616 1865.57 502.431V520.581C1879.25 522.396 1908.44 536.976 1908.44 586.221V823.344C1908.44 838.832 1908.44 870.744 1919.39 888.985C1919.83 889.484 1920.11 890.103 1920.19 890.763C1920.28 891.422 1920.17 892.093 1919.87 892.689C1919.58 893.286 1919.11 893.781 1918.54 894.112C1917.96 894.443 1917.3 894.596 1916.63 894.55ZM1789.89 456.846V274.444H1735.17V456.846H1789.89Z" fill="#303030"/>
</g>
</g>
<defs>
<linearGradient id="paint0_linear_67_258" x1="1984.84" y1="1050.88" x2="960.904" y2="889.271" gradientUnits="userSpaceOnUse">
<stop stop-color="#BCBFC7"/>
<stop offset="1" stop-color="#D5D7DC"/>
</linearGradient>
<radialGradient id="paint1_radial_67_258" cx="0" cy="0" r="1" gradientUnits="userSpaceOnUse" gradientTransform="translate(324.626 3.62046e-05) rotate(50.4733) scale(1286.46 1269.68)">
<stop stop-color="white"/>
<stop offset="1" stop-color="white" stop-opacity="0"/>
</radialGradient>
</defs>
</svg>
