<svg width="30" height="30" viewBox="0 0 30 30" fill="none" xmlns="http://www.w3.org/2000/svg">
<path d="M15 30C23.2843 30 30 23.2843 30 15C30 6.71573 23.2843 0 15 0C6.71573 0 0 6.71573 0 15C0 23.2843 6.71573 30 15 30Z" fill="#4169E1"/>
<path d="M24.2215 21.6417C23.7561 21.6986 21.4796 21.6417 21.3614 21.6417C20.773 21.6482 20.2052 21.4528 19.7814 21.0977C19.3013 20.696 18.8722 20.2532 18.4031 19.8326C18.2644 19.7049 18.1142 19.587 17.954 19.4799C17.5795 19.2285 17.2085 19.2854 17.0322 19.6697C16.8944 20.085 16.7982 20.5098 16.7449 20.9396C16.714 21.3286 16.4303 21.5721 15.9285 21.599C15.6176 21.6132 15.3067 21.618 14.9994 21.6116C13.8795 21.6054 12.7773 21.3686 11.7829 20.9206C10.707 20.3991 9.76958 19.6862 9.03188 18.8284C7.81911 17.481 6.84998 16.0009 5.9845 14.4748C5.93904 14.3989 5.05174 12.7574 5.02992 12.6799C4.94991 12.4206 5.02992 12.1723 5.27538 12.0869C5.43175 12.0347 8.35549 12.0869 8.40458 12.0869C8.62194 12.0853 8.83426 12.1438 9.01079 12.2541C9.18731 12.3645 9.31888 12.5208 9.38644 12.7005C9.92692 13.9041 10.6669 15.0325 11.5829 16.0499C11.7111 16.1859 11.8611 16.3052 12.0284 16.4041C12.2665 16.5449 12.492 16.4958 12.5902 16.257C12.7065 15.9257 12.7749 15.5831 12.7938 15.237C12.8102 14.5507 12.7938 14.0984 12.7502 13.4137C12.7211 12.9741 12.5429 12.5882 11.7974 12.4648C11.5683 12.4301 11.5483 12.2656 11.6956 12.1011C12.0029 11.7595 12.4229 11.7058 12.8938 11.6852C13.5957 11.6504 14.2975 11.6742 14.9994 11.6852H15.1521C15.4576 11.6843 15.7623 11.7113 16.0612 11.7659C16.2379 11.797 16.3984 11.8769 16.5186 11.9937C16.6389 12.1105 16.7125 12.2581 16.7285 12.4142C16.7644 12.5874 16.7797 12.7634 16.774 12.9393C16.7558 13.6888 16.714 14.4368 16.7049 15.1864C16.6965 15.4832 16.7276 15.7799 16.7976 16.0704C16.8976 16.4689 17.2122 16.5686 17.5249 16.2808C17.9299 15.9087 18.3013 15.51 18.6359 15.0884C19.2275 14.3199 19.7156 13.4948 20.0905 12.6293C20.2941 12.1849 20.4541 12.0869 20.9996 12.0869H24.1015C24.286 12.0841 24.4698 12.1054 24.647 12.1502C24.7097 12.1645 24.7683 12.1899 24.8192 12.2249C24.8701 12.2598 24.9121 12.3035 24.9427 12.3533C24.9732 12.403 24.9916 12.4577 24.9968 12.5139C25.0019 12.5701 24.9936 12.6266 24.9725 12.6799C24.8197 13.2714 24.4524 13.7758 24.0633 14.2613C23.4324 15.0394 22.7669 15.7968 22.1214 16.5622C22.0398 16.6638 21.9651 16.7694 21.8978 16.8785C21.6542 17.2596 21.6723 17.4731 22.0251 17.791C22.5887 18.2939 23.1906 18.7667 23.7342 19.2854C24.1334 19.6625 24.4936 20.0694 24.8106 20.5015C25.2088 21.0376 24.9634 21.55 24.2215 21.6417Z" fill="white"/>
</svg>
